<mxGraphModel dx="1098" dy="988" grid="1" gridSize="10" guides="1" tooltips="1" connect="1" arrows="1" fold="1" page="1" pageScale="1" pageWidth="827" pageHeight="1169" math="0" shadow="0">
  <root>
    <mxCell id="0" />
    <mxCell id="1" parent="0" />
    <mxCell id="Z-jfQPlA48iBZ24IY5Qg-3" value="" style="rounded=0;whiteSpace=wrap;html=1;fillColor=#DAE8FC;strokeColor=#6c8ebf;opacity=50;" parent="1" vertex="1">
      <mxGeometry x="40" y="40" width="320" height="240" as="geometry" />
    </mxCell>
    <mxCell id="Z-jfQPlA48iBZ24IY5Qg-4" value="" style="rounded=0;whiteSpace=wrap;html=1;" parent="1" vertex="1">
      <mxGeometry x="80" y="90" width="240" height="160" as="geometry" />
    </mxCell>
  </root>
</mxGraphModel>
